# xmcd
#
# Track frame offsets: 
#        150
#        18052
#        36881
#        54116
#        66743
#        81899
#        97740
#        114736
#        130719
#        140059
#        152331
#        166886
#        179850
#        192984
#        204554
#
# Disc length: 2918 seconds
#
# Revision: 0
# Processed by: cddbd v1.5.2PL0 Copyright (c) Steve Scherf et al.
# Submitted via: ExactAudioCopy v0.99pb4
#
DISCID=ca0b640f
DTITLE=Hunt Family Fiddlers - Dance In The Field
DYEAR=2001
DGENRE=Bluegrass
TTITLE0=Jig Medley
TTITLE1=Cooley's Reel
TTITLE2=Come Thou Fount
TTITLE3=Old Joe Clark
TTITLE4=Spring Epiphany
TTITLE5=Growling Old Man
TTITLE6=Merry Old Maid - Jerry's Beaver Hat
TTITLE7=Amazing Grace
TTITLE8=Scarba Air
TTITLE9=Boys of Balisodare
TTITLE10=Cripple Creek - Dream
TTITLE11=Top Of Maol - Art O'Keef's Polka
TTITLE12=Boys Of Bluehill
TTITLE13=Mason's Apron
TTITLE14=Jackie Coleman's Reel - Pigeon On The Gate
EXTD=
EXTT0=
EXTT1=
EXTT2=
EXTT3=
EXTT4=
EXTT5=
EXTT6=
EXTT7=
EXTT8=
EXTT9=
EXTT10=
EXTT11=
EXTT12=
EXTT13=
EXTT14=
PLAYORDER=
